<?xml version="1.0" encoding="UTF-8"?>
<svg id="Calque_7" data-name="Calque 7" xmlns="http://www.w3.org/2000/svg" viewBox="0 0 759.92 439.96">
  <defs>
    <style>
      .cls-1 {
        fill: #ba873f;
      }

      .cls-2 {
        fill: #16202a;
      }
    </style>
  </defs>
  <g>
    <path class="cls-2" d="M226.05,253.45c-1.87-4.66-4.51-8.7-7.96-12.12-3.43-3.45-7.47-6.12-12.12-8.02-4.63-1.9-9.72-2.84-15.28-2.84s-10.63.94-15.28,2.84c-4.63,1.9-8.67,4.57-12.12,8.02-3.45,3.43-6.12,7.47-7.99,12.12-1.9,4.63-2.87,9.72-2.87,15.28s.97,10.63,2.87,15.28c1.87,4.63,4.54,8.67,7.99,12.12,3.45,3.43,7.49,6.09,12.12,7.99,4.66,1.9,9.78,2.84,15.4,2.84s10.54-.94,15.17-2.84c4.65-1.9,8.7-4.57,12.12-7.99,3.45-3.45,6.09-7.52,7.96-12.18,1.87-4.68,2.78-9.75,2.78-15.22s-.91-10.66-2.78-15.28ZM209.12,277.25c-1,2.61-2.37,4.86-4.16,6.79-1.79,1.93-3.89,3.43-6.32,4.48s-5.06,1.58-7.96,1.58-5.53-.53-7.96-1.58c-2.4-1.05-4.54-2.52-6.35-4.42-1.84-1.9-3.22-4.16-4.19-6.79-.94-2.63-1.41-5.5-1.41-8.58s.47-5.94,1.41-8.55c.97-2.61,2.34-4.86,4.19-6.79,1.82-1.93,3.95-3.43,6.35-4.48,2.43-1.05,5.09-1.58,7.96-1.58s5.53.53,7.96,1.58c2.43,1.05,4.54,2.55,6.32,4.48,1.79,1.93,3.16,4.19,4.16,6.79,1,2.61,1.49,5.45,1.49,8.55s-.5,5.91-1.49,8.52Z"/>
    <path class="cls-2" d="M287.56,277.43c.41-.2.85-.35,1.26-.59,3.78-2.11,6.76-5.01,8.96-8.7,2.17-3.69,3.25-7.85,3.25-12.5s-1.08-8.52-3.25-12.06c-2.2-3.54-5.18-6.32-9.02-8.37-3.84-2.05-8.11-3.07-12.79-3.07h-33.2v73.78h17.07v-25.91h9.19l14.61,25.91h20.46l-16.54-28.49ZM282.32,261.65c-.73,1.49-1.79,2.64-3.16,3.43-1.35.82-2.96,1.23-4.77,1.23h-14.55v-19.18h12.97c2.22,0,4.16.38,5.74,1.14,1.58.79,2.78,1.87,3.63,3.34.85,1.43,1.26,3.1,1.26,5.01s-.35,3.57-1.11,5.04Z"/>
    <polygon class="cls-1" points="335.71 252.09 326.61 267.66 324.92 265.3 301.46 232.13 321.81 232.13 335.51 251.81 335.71 252.09"/>
    <polygon class="cls-2" points="375.56 232.13 348.57 273.06 348.57 305.91 330.54 305.91 330.54 273.27 339.61 257.69 355.83 232.13 375.56 232.13"/>
    <polygon class="cls-2" points="439.53 243.95 439.53 232.15 383.88 232.15 383.88 248.59 415.3 248.59 381.14 294.02 381.14 305.93 440.69 305.93 440.69 290.22 404.99 290.22 439.53 243.95"/>
    <path class="cls-2" d="M524.44,253.45c-1.87-4.66-4.54-8.7-7.96-12.12s-7.49-6.12-12.12-8.02c-4.65-1.9-9.75-2.84-15.28-2.84s-10.66.94-15.28,2.84c-4.65,1.9-8.7,4.57-12.12,8.02-3.45,3.43-6.12,7.47-8.02,12.12-1.9,4.63-2.84,9.72-2.84,15.28s.94,10.63,2.84,15.28c1.9,4.63,4.57,8.67,8.02,12.12,3.43,3.43,7.47,6.09,12.12,7.99,4.63,1.9,9.75,2.84,15.37,2.84s10.54-.94,15.19-2.84c4.63-1.9,8.67-4.57,12.12-7.99,3.43-3.45,6.09-7.52,7.96-12.18,1.84-4.68,2.78-9.75,2.78-15.22s-.94-10.66-2.78-15.28ZM507.52,277.25c-1,2.61-2.37,4.86-4.16,6.79-1.82,1.93-3.92,3.43-6.32,4.48-2.43,1.05-5.09,1.58-7.96,1.58s-5.53-.53-7.96-1.58c-2.43-1.05-4.54-2.52-6.38-4.42-1.82-1.9-3.22-4.16-4.16-6.79-.94-2.63-1.43-5.5-1.43-8.58s.5-5.94,1.43-8.55,2.34-4.86,4.16-6.79c1.84-1.93,3.95-3.43,6.38-4.48,2.43-1.05,5.07-1.58,7.96-1.58s5.53.53,7.96,1.58c2.4,1.05,4.51,2.55,6.32,4.48,1.79,1.93,3.16,4.19,4.16,6.79.97,2.61,1.46,5.45,1.46,8.55s-.5,5.91-1.46,8.52Z"/>
    <path class="cls-2" d="M590.25,232.15v18.23c0,2.88.02,5.55.05,8.01.03,2.46.11,4.74.21,6.85.1,2.11.24,4.18.42,6.22.17,2.04.37,4.11.58,6.22.05.49.14,1.04.2,1.55l-34.56-47.08h-16.02v73.78h17.39v-24.66c0-1.76-.02-3.36-.05-4.8-.04-1.44-.09-2.9-.16-4.37-.07-1.48-.19-3.12-.37-4.95-.18-1.83-.39-3.92-.63-6.27-.03-.32-.07-.68-.11-1.02l34.2,46.08h16.23v-73.78h-17.39Z"/>
  </g>
  <g>
    <path class="cls-2" d="M153.44,348.35v-18.5h1.32v17.18h9.06v1.32h-10.39Z"/>
    <path class="cls-2" d="M167.61,348.35v-18.5h10.76v1.32h-9.43v15.86h9.33v1.32h-10.65ZM168.24,339.47v-1.32h8.61v1.32h-8.61Z"/>
    <path class="cls-2" d="M190.46,348.35v-18.5h1.32v18.5h-1.32ZM191.26,331.18v-1.32h10.49v1.32h-10.49ZM191.28,339.74v-1.32h9.17v1.32h-9.17Z"/>
    <path class="cls-2" d="M212.95,348.54c-1.36,0-2.57-.31-3.63-.94-1.07-.62-1.9-1.48-2.5-2.58-.6-1.09-.9-2.34-.9-3.75v-11.42h1.32v11.18c0,1.2.25,2.26.74,3.2.49.93,1.17,1.66,2.04,2.19s1.84.79,2.93.79,2.16-.26,3.04-.79,1.57-1.26,2.07-2.19c.5-.93.75-2,.75-3.2v-11.18h1.3v11.42c0,1.41-.31,2.66-.93,3.75-.62,1.09-1.46,1.95-2.54,2.58-1.08.63-2.31.94-3.7.94Z"/>
    <path class="cls-2" d="M229.04,348.35v-17.18h-5.42v-1.32h12.34v1.32h-5.6v17.18h-1.32Z"/>
    <path class="cls-2" d="M246.51,348.54c-1.36,0-2.57-.31-3.63-.94-1.07-.62-1.9-1.48-2.5-2.58-.6-1.09-.9-2.34-.9-3.75v-11.42h1.32v11.18c0,1.2.25,2.26.74,3.2.49.93,1.17,1.66,2.04,2.19s1.84.79,2.93.79,2.16-.26,3.04-.79,1.57-1.26,2.07-2.19c.5-.93.75-2,.75-3.2v-11.18h1.3v11.42c0,1.41-.31,2.66-.93,3.75s-1.46,1.95-2.54,2.58c-1.08.63-2.31.94-3.7.94Z"/>
    <path class="cls-2" d="M259.38,348.35v-18.5h6.66c1.09,0,2.06.25,2.92.74.85.49,1.53,1.16,2.02,2,.49.83.74,1.78.74,2.84s-.23,1.98-.7,2.78c-.47.79-1.11,1.41-1.93,1.86-.82.45-1.75.67-2.79.67h-5.6v7.61h-1.32ZM260.7,339.42h5.76c.76,0,1.43-.17,2.01-.5.58-.33,1.03-.8,1.36-1.4.33-.6.49-1.28.49-2.03,0-.83-.18-1.57-.55-2.22-.37-.65-.88-1.16-1.54-1.53-.66-.37-1.42-.55-2.26-.55h-5.26v8.25ZM270.9,348.35l-4.6-7.95,1.11-.69,5.02,8.64h-1.53Z"/>
    <path class="cls-2" d="M283.35,348.35v-18.5h6.74c1.2,0,2.32.23,3.36.69,1.04.46,1.95,1.1,2.73,1.92.78.82,1.4,1.79,1.85,2.92.45,1.13.67,2.37.67,3.73s-.23,2.58-.67,3.71c-.45,1.14-1.07,2.12-1.85,2.93-.78.82-1.7,1.46-2.73,1.92-1.04.46-2.16.69-3.36.69h-6.74ZM284.67,347.48l-.37-.45h5.66c1,0,1.95-.19,2.84-.58.89-.39,1.67-.94,2.34-1.65.67-.71,1.2-1.55,1.59-2.51.39-.96.58-2.02.58-3.19s-.19-2.22-.58-3.19c-.39-.96-.92-1.8-1.59-2.51-.67-.71-1.45-1.26-2.34-1.65-.89-.39-1.84-.58-2.84-.58h-5.74l.45-.39v16.7Z"/>
    <path class="cls-2" d="M302.88,348.35v-18.5h10.76v1.32h-9.43v15.86h9.33v1.32h-10.65ZM303.51,339.47v-1.32h8.61v1.32h-8.61Z"/>
    <path class="cls-2" d="M325.73,348.35v-18.5h1.32v17.18h9.06v1.32h-10.39Z"/>
    <path class="cls-2" d="M336.33,334.43l-.47-.69c.49-.3.87-.62,1.14-.95s.4-.69.4-1.06c0-.21-.03-.4-.08-.58-.05-.18-.23-.39-.53-.63-.16-.12-.29-.27-.41-.45s-.17-.36-.17-.55c0-.32.1-.57.29-.77.19-.19.46-.29.79-.29.37,0,.68.09.92.25.25.17.44.41.57.73s.2.71.2,1.16c0,.42-.05.81-.15,1.15s-.25.67-.46.98-.49.6-.82.88c-.33.28-.74.56-1.22.82Z"/>
    <path class="cls-2" d="M343.54,348.35v-18.5h1.32v18.5h-1.32ZM344.31,339.79v-1.32h12.34v1.32h-12.34ZM356.17,348.35v-18.5h1.32v18.5h-1.32Z"/>
    <path class="cls-2" d="M361.01,348.35l7.03-18.5h1.8l6.95,18.5h-1.48l-4.78-12.79c-.21-.55-.39-1.03-.54-1.45-.15-.42-.3-.83-.44-1.22s-.28-.8-.42-1.23-.3-.92-.47-1.47h.45c-.18.58-.34,1.09-.49,1.53s-.3.86-.45,1.26c-.15.4-.3.81-.46,1.24-.16.43-.34.93-.55,1.49l-4.76,12.63h-1.37ZM363.89,342.78l.5-1.32h9.06l.5,1.32h-10.07Z"/>
    <path class="cls-2" d="M380.3,348.35v-18.5h7.29c.97,0,1.83.2,2.59.59.75.4,1.35.95,1.78,1.65.43.7.65,1.5.65,2.4,0,1.02-.3,1.92-.91,2.68s-1.41,1.3-2.42,1.6l-.08-.5c.88.16,1.65.46,2.3.9s1.16.98,1.53,1.61c.37.63.55,1.34.55,2.12s-.14,1.52-.42,2.18c-.28.66-.68,1.24-1.19,1.73-.51.49-1.12.87-1.81,1.14-.69.27-1.47.4-2.31.4h-7.56ZM381.62,338.07h5.81c.74,0,1.39-.15,1.96-.45.56-.3,1.01-.71,1.34-1.23.33-.52.49-1.11.49-1.76,0-1-.34-1.83-1.02-2.48s-1.62-.98-2.81-.98h-5.76v6.9ZM381.62,347.03h6.08c.86,0,1.63-.17,2.3-.5s1.19-.8,1.57-1.39c.38-.59.57-1.26.57-2.02s-.2-1.37-.59-1.93c-.4-.56-.94-1-1.63-1.32s-1.47-.47-2.35-.47h-5.95v7.64Z"/>
    <path class="cls-2" d="M396.71,348.35v-1.32h2.99v-15.86h-2.99v-1.32h7.29v1.32h-2.98v15.86h2.98v1.32h-7.29Z"/>
    <path class="cls-2" d="M411.88,348.35v-17.18h-5.42v-1.32h12.34v1.32h-5.6v17.18h-1.32Z"/>
    <path class="cls-2" d="M418.8,348.35l7.03-18.5h1.8l6.95,18.5h-1.48l-4.78-12.79c-.21-.55-.39-1.03-.54-1.45-.15-.42-.3-.83-.44-1.22s-.28-.8-.42-1.23-.3-.92-.47-1.47h.45c-.18.58-.34,1.09-.49,1.53s-.3.86-.45,1.26c-.15.4-.3.81-.46,1.24-.16.43-.34.93-.55,1.49l-4.76,12.63h-1.37ZM421.68,342.78l.5-1.32h9.06l.5,1.32h-10.07Z"/>
    <path class="cls-2" d="M439.99,348.35v-17.18h-5.42v-1.32h12.34v1.32h-5.6v17.18h-1.32Z"/>
    <path class="cls-2" d="M462.93,348.62c-.88,0-1.72-.13-2.52-.39-.8-.27-1.54-.66-2.22-1.18-.68-.52-1.28-1.16-1.78-1.92l.95-.98c.77,1.13,1.64,1.93,2.59,2.42.95.48,1.96.73,3.04.73.93,0,1.77-.16,2.51-.49s1.33-.77,1.76-1.35.65-1.22.65-1.94c0-.49-.08-.91-.25-1.27-.17-.35-.4-.66-.71-.93-.31-.26-.68-.5-1.11-.7-.43-.2-.92-.39-1.46-.55-.54-.17-1.11-.34-1.73-.51-.85-.25-1.6-.5-2.26-.77s-1.23-.58-1.69-.95c-.47-.37-.82-.81-1.06-1.32-.24-.51-.36-1.14-.36-1.88s.15-1.38.43-1.98c.29-.6.7-1.12,1.23-1.56.53-.44,1.14-.78,1.84-1.01.7-.24,1.45-.36,2.26-.36.95,0,1.78.14,2.5.41.71.27,1.34.66,1.89,1.15.55.49,1.04,1.08,1.48,1.74l-.98.95c-.39-.6-.82-1.12-1.3-1.56-.48-.44-1.01-.78-1.6-1.02-.59-.24-1.26-.36-1.99-.36-.85,0-1.6.15-2.26.46-.66.31-1.18.73-1.57,1.28-.39.55-.58,1.17-.58,1.88,0,.49.09.93.28,1.3.19.37.48.69.87.96.4.27.9.52,1.51.74s1.34.44,2.18.65c.86.21,1.65.46,2.35.74.71.28,1.32.62,1.84,1.01.52.39.92.85,1.19,1.4s.41,1.21.41,1.98c0,.99-.27,1.87-.82,2.66-.55.78-1.3,1.4-2.24,1.85-.95.45-2.04.67-3.25.67Z"/>
    <path class="cls-2" d="M472.57,334.43l-.47-.69c.49-.3.87-.62,1.14-.95s.4-.69.4-1.06c0-.21-.03-.4-.08-.58-.05-.18-.23-.39-.53-.63-.16-.12-.29-.27-.41-.45s-.17-.36-.17-.55c0-.32.1-.57.29-.77.19-.19.46-.29.79-.29.37,0,.68.09.92.25.25.17.44.41.57.73s.2.71.2,1.16c0,.42-.05.81-.15,1.15s-.25.67-.46.98-.49.6-.82.88c-.33.28-.74.56-1.22.82Z"/>
    <path class="cls-2" d="M476.01,348.35l7.03-18.5h1.8l6.95,18.5h-1.48l-4.78-12.79c-.21-.55-.39-1.03-.54-1.45-.15-.42-.3-.83-.44-1.22s-.28-.8-.42-1.23-.3-.92-.47-1.47h.45c-.18.58-.34,1.09-.49,1.53s-.3.86-.45,1.26c-.15.4-.3.81-.46,1.24-.16.43-.34.93-.55,1.49l-4.76,12.63h-1.37ZM478.89,342.78l.5-1.32h9.06l.5,1.32h-10.07Z"/>
    <path class="cls-2" d="M495.3,348.35v-18.5h1.22l12.84,16.83-.32.69c-.02-.14-.03-.51-.04-1.11-.01-.6-.02-1.32-.03-2.16,0-.83-.02-1.7-.03-2.58s-.02-1.7-.03-2.46-.01-1.34-.01-1.74v-7.48h1.32v18.5h-1.27l-12.92-16.94.37-.74c.02.35.03.84.05,1.48s.03,1.33.05,2.08c.02.75.03,1.48.05,2.19.02.71.03,1.33.04,1.85s.01.85.01.99v9.09h-1.32Z"/>
    <path class="cls-2" d="M514.88,348.35v-1.32h2.99v-15.86h-2.99v-1.32h7.29v1.32h-2.98v15.86h2.98v1.32h-7.29Z"/>
    <path class="cls-2" d="M526.82,348.35v-18.5h1.27l7.43,12.08h-.55l7.53-12.08h1.14v18.5h-1.32v-9.27c0-1.59.01-3.01.04-4.28.03-1.27.09-2.53.2-3.78l.39.5-7.21,11.42h-1.11l-6.98-11.26.26-.66c.11,1.18.17,2.39.2,3.63.03,1.24.04,2.72.04,4.43v9.27h-1.32Z"/>
    <path class="cls-2" d="M549.34,348.35v-18.5h10.76v1.32h-9.43v15.86h9.33v1.32h-10.65ZM549.97,339.47v-1.32h8.61v1.32h-8.61Z"/>
    <path class="cls-2" d="M571.14,348.35v-1.32h2.98v-15.86h-2.98v-1.32h7.29v1.32h-2.99v15.86h2.99v1.32h-7.29Z"/>
    <path class="cls-2" d="M590.48,348.62c-1.36,0-2.6-.23-3.74-.7-1.14-.47-2.12-1.13-2.96-1.98s-1.48-1.86-1.94-3.02c-.46-1.16-.69-2.43-.69-3.81s.22-2.63.66-3.77c.44-1.14,1.07-2.13,1.89-2.97.82-.85,1.78-1.5,2.88-1.96s2.31-.69,3.63-.69c.83,0,1.66.14,2.51.41.84.27,1.63.65,2.35,1.12s1.32,1.02,1.8,1.64l-.98,1.03c-.39-.56-.89-1.06-1.51-1.49-.62-.43-1.29-.77-2.01-1.02-.72-.25-1.44-.37-2.16-.37-1.11,0-2.14.2-3.08.59-.94.4-1.75.95-2.43,1.68-.68.72-1.21,1.58-1.58,2.56-.38.99-.57,2.06-.57,3.23s.19,2.27.58,3.28c.39,1,.94,1.87,1.65,2.6.71.73,1.55,1.3,2.51,1.7.96.41,2.02.61,3.19.61.7,0,1.4-.1,2.1-.3.69-.2,1.32-.49,1.89-.85.56-.36,1.01-.77,1.35-1.23l.71,1.16c-.42.49-.96.93-1.62,1.31-.66.38-1.38.68-2.14.9s-1.53.33-2.28.33Z"/>
    <path class="cls-2" d="M599.44,348.35v-1.32h2.99v-15.86h-2.99v-1.32h7.29v1.32h-2.98v15.86h2.98v1.32h-7.29Z"/>
  </g>
  <g>
    <path class="cls-1" d="M157.81,322.64c-.63,0-1.22-.11-1.75-.33-.53-.23-.99-.54-1.38-.95-.39-.41-.69-.89-.91-1.46-.21-.56-.32-1.17-.32-1.83s.11-1.25.32-1.8c.22-.55.52-1.02.92-1.44.4-.41.86-.72,1.38-.94.53-.22,1.1-.33,1.73-.33.41,0,.82.07,1.23.2s.78.31,1.12.54.62.49.84.79l-.68.71c-.21-.25-.45-.47-.73-.66-.28-.19-.57-.33-.87-.43-.3-.1-.61-.15-.91-.15-.47,0-.92.09-1.33.26-.41.17-.76.42-1.06.73-.29.31-.53.68-.69,1.12-.16.43-.25.9-.25,1.41s.08,1.01.25,1.45c.17.44.4.82.71,1.14s.67.56,1.09.74c.42.17.89.26,1.4.26.31,0,.61-.05.91-.13.3-.09.58-.21.84-.37.25-.16.47-.34.65-.55l.51.83c-.19.24-.45.45-.78.63-.33.18-.68.33-1.07.43s-.78.16-1.17.16Z"/>
    <path class="cls-1" d="M168.91,322.64c-.63,0-1.2-.11-1.73-.33-.53-.23-.99-.54-1.38-.95-.39-.41-.7-.89-.91-1.44-.22-.55-.32-1.16-.32-1.82s.11-1.27.32-1.82c.21-.55.52-1.04.91-1.45.39-.41.85-.73,1.38-.95s1.11-.34,1.73-.34,1.22.11,1.75.34.99.54,1.38.95c.39.41.7.89.91,1.45.22.55.32,1.16.32,1.82s-.11,1.26-.32,1.81c-.21.55-.52,1.03-.91,1.45-.39.41-.85.73-1.38.95-.53.22-1.11.33-1.75.33ZM168.91,321.66c.48,0,.93-.09,1.34-.26.41-.17.76-.42,1.06-.74.3-.32.53-.7.69-1.14.17-.43.25-.91.25-1.43s-.08-1-.25-1.44c-.16-.43-.39-.81-.69-1.14-.29-.32-.65-.57-1.06-.75-.41-.18-.86-.27-1.34-.27s-.93.09-1.34.27-.76.43-1.06.75c-.29.32-.52.7-.68,1.14-.16.44-.24.92-.24,1.44s.08.99.24,1.43c.16.44.39.81.68,1.14.3.32.65.57,1.06.74.41.17.86.26,1.34.26Z"/>
    <path class="cls-1" d="M177.75,322.52v-8.89h.9l5.81,7.69-.18.23c-.03-.13-.04-.34-.06-.61-.01-.27-.03-.58-.04-.92-.01-.34-.02-.7-.03-1.07,0-.37-.02-.73-.02-1.09,0-.36,0-.68,0-.97v-3.26h.99v8.89h-.93l-5.79-7.59.15-.27c.03.34.05.67.07,1,.02.33.04.65.05.95.01.3.02.58.03.84,0,.25.01.47.02.65,0,.18,0,.31,0,.38v4.04h-.99Z"/>
    <path class="cls-1" d="M192.86,322.64c-.45,0-.87-.06-1.27-.19-.4-.13-.76-.32-1.09-.57-.33-.25-.62-.57-.87-.94l.68-.76c.4.57.81.96,1.23,1.19.42.23.89.34,1.42.34.38,0,.73-.06,1.04-.19.31-.13.56-.31.73-.53s.27-.49.27-.79c0-.19-.03-.37-.09-.52s-.16-.29-.29-.41c-.13-.12-.28-.23-.47-.32-.19-.09-.4-.18-.64-.25-.24-.08-.51-.15-.81-.23-.43-.1-.81-.22-1.14-.36-.33-.14-.6-.31-.83-.51s-.39-.44-.51-.71c-.11-.27-.17-.58-.17-.94s.07-.67.22-.97c.15-.29.35-.55.61-.77.26-.22.57-.38.93-.5.35-.12.73-.18,1.14-.18.46,0,.87.06,1.22.19.36.12.68.3.96.54.28.24.52.52.72.85l-.7.69c-.18-.28-.38-.52-.6-.73-.23-.2-.47-.36-.74-.46s-.56-.16-.88-.16c-.37,0-.7.06-.98.19-.29.13-.51.3-.67.53-.16.22-.24.48-.24.77,0,.21.04.4.11.57.08.17.2.31.36.43.16.12.38.23.65.33s.59.19.96.27c.44.1.83.22,1.19.37.35.15.65.32.9.51.25.2.44.43.57.69s.2.56.2.9c0,.53-.13.98-.39,1.38-.26.39-.63.7-1.1.92-.47.22-1.01.33-1.64.33Z"/>
    <path class="cls-1" d="M202.14,322.52v-7.92h-2.54v-.97h6.17v.97h-2.64v7.92h-.99Z"/>
    <path class="cls-1" d="M209.98,322.52v-8.89h3.48c.52,0,.98.12,1.4.36.42.24.75.57.99.98s.37.88.37,1.41c0,.49-.12.93-.35,1.33-.24.4-.56.71-.97.95-.41.23-.86.35-1.37.35h-2.56v3.5h-.99ZM210.97,318.05h2.65c.31,0,.59-.07.83-.21.23-.15.42-.34.56-.59.13-.25.2-.53.2-.85,0-.35-.08-.66-.24-.93-.16-.27-.38-.48-.67-.63-.28-.15-.61-.23-.97-.23h-2.36v3.45ZM215.4,322.52l-2.23-3.91.95-.33,2.46,4.24h-1.18Z"/>
    <path class="cls-1" d="M224.25,322.6c-.67,0-1.27-.15-1.79-.45-.53-.3-.94-.71-1.24-1.24s-.45-1.13-.45-1.8v-5.48h.99v5.37c0,.5.11.95.33,1.35s.52.71.89.94.8.34,1.26.34c.49,0,.93-.11,1.31-.34s.69-.54.91-.94.33-.85.33-1.35v-5.37h.95v5.48c0,.67-.15,1.27-.45,1.8s-.71.94-1.24,1.24-1.13.45-1.81.45Z"/>
    <path class="cls-1" d="M236.53,322.64c-.63,0-1.22-.11-1.75-.33-.53-.23-.99-.54-1.38-.95-.39-.41-.69-.89-.91-1.46-.21-.56-.32-1.17-.32-1.83s.11-1.25.32-1.8c.22-.55.52-1.02.92-1.44.4-.41.86-.72,1.38-.94.53-.22,1.1-.33,1.73-.33.41,0,.82.07,1.23.2s.78.31,1.12.54.62.49.84.79l-.68.71c-.21-.25-.45-.47-.73-.66-.28-.19-.57-.33-.87-.43-.3-.1-.61-.15-.91-.15-.47,0-.92.09-1.33.26-.41.17-.76.42-1.06.73-.29.31-.53.68-.69,1.12-.16.43-.25.9-.25,1.41s.08,1.01.25,1.45c.17.44.4.82.71,1.14s.67.56,1.09.74c.42.17.89.26,1.4.26.31,0,.61-.05.91-.13.3-.09.58-.21.84-.37.25-.16.47-.34.65-.55l.51.83c-.19.24-.45.45-.78.63-.33.18-.68.33-1.07.43s-.78.16-1.17.16Z"/>
    <path class="cls-1" d="M245.58,322.52v-7.92h-2.54v-.97h6.17v.97h-2.64v7.92h-.99Z"/>
    <path class="cls-1" d="M253.01,322.52v-.94h1.44v-7h-1.44v-.94h3.86v.94h-1.43v7h1.43v.94h-3.86Z"/>
    <path class="cls-1" d="M265.08,322.64c-.63,0-1.2-.11-1.73-.33-.53-.23-.99-.54-1.38-.95-.39-.41-.7-.89-.91-1.44-.22-.55-.32-1.16-.32-1.82s.11-1.27.32-1.82c.21-.55.52-1.04.91-1.45.39-.41.85-.73,1.38-.95.53-.22,1.11-.34,1.73-.34s1.22.11,1.75.34.99.54,1.38.95c.39.41.7.89.91,1.45.22.55.32,1.16.32,1.82s-.11,1.26-.32,1.81c-.21.55-.52,1.03-.91,1.45-.39.41-.85.73-1.38.95-.53.22-1.11.33-1.75.33ZM265.08,321.66c.48,0,.93-.09,1.34-.26.41-.17.76-.42,1.06-.74.3-.32.53-.7.69-1.14.17-.43.25-.91.25-1.43s-.08-1-.25-1.44c-.16-.43-.39-.81-.69-1.14-.29-.32-.65-.57-1.06-.75-.41-.18-.86-.27-1.34-.27s-.93.09-1.34.27-.76.43-1.06.75c-.29.32-.52.7-.68,1.14-.16.44-.24.92-.24,1.44s.08.99.24,1.43c.16.44.39.81.68,1.14.3.32.65.57,1.06.74.41.17.86.26,1.34.26Z"/>
    <path class="cls-1" d="M273.91,322.52v-8.89h.9l5.81,7.69-.18.23c-.03-.13-.04-.34-.06-.61-.01-.27-.03-.58-.04-.92-.01-.34-.02-.7-.03-1.07,0-.37-.02-.73-.02-1.09,0-.36,0-.68,0-.97v-3.26h.99v8.89h-.93l-5.79-7.59.15-.27c.03.34.05.67.07,1,.02.33.04.65.05.95.01.3.02.58.03.84,0,.25.01.47.02.65,0,.18,0,.31,0,.38v4.04h-.99Z"/>
    <path class="cls-1" d="M298.02,319.46v-.95h3.58v.95h-3.58Z"/>
    <path class="cls-1" d="M317.35,322.52l3.4-8.89h1.13l3.38,8.89h-1.08l-2.17-5.76c-.06-.16-.13-.35-.2-.56-.07-.22-.15-.44-.23-.67-.08-.23-.16-.46-.23-.68s-.14-.41-.2-.58h.25c-.07.21-.14.43-.21.64-.07.22-.15.43-.22.65-.07.21-.15.43-.23.64-.07.21-.15.42-.23.63l-2.16,5.7h-1.01ZM318.8,320.07l.37-.96h4.2l.41.96h-4.97Z"/>
    <path class="cls-1" d="M333.1,322.64c-.65,0-1.26-.11-1.82-.34-.56-.23-1.05-.55-1.47-.95s-.75-.89-.98-1.44c-.23-.55-.35-1.16-.35-1.81s.11-1.26.35-1.81c.23-.55.55-1.03.96-1.44.41-.41.89-.72,1.45-.95.55-.23,1.15-.34,1.78-.34.45,0,.89.06,1.33.19.43.13.83.3,1.19.53s.64.49.86.77l-.66.67c-.24-.24-.5-.45-.8-.63-.29-.18-.61-.32-.93-.42-.33-.1-.65-.15-.97-.15-.5,0-.96.09-1.39.27-.43.18-.8.43-1.12.74-.32.31-.57.69-.75,1.13-.18.43-.27.91-.27,1.43s.09.97.27,1.4c.18.44.44.82.77,1.14.33.33.72.58,1.16.75s.91.27,1.42.27c.4,0,.77-.06,1.12-.18.35-.12.66-.29.92-.5.26-.22.46-.47.61-.75.14-.29.21-.6.21-.93v-.45l.2.25h-3.12v-.98h3.91c0,.07.02.15.03.23s.01.18.02.27c0,.09,0,.17,0,.25,0,.55-.1,1.06-.3,1.52-.2.46-.49.86-.85,1.19-.36.33-.77.59-1.25.77-.47.18-.99.27-1.55.27Z"/>
    <path class="cls-1" d="M341.4,322.52v-8.89h3.48c.51,0,.98.12,1.4.36.42.24.75.57,1,.98s.37.88.37,1.41c0,.49-.12.93-.35,1.33s-.56.71-.96.95c-.41.23-.86.35-1.37.35h-2.56v3.5h-.99ZM342.39,318.05h2.65c.31,0,.59-.07.83-.21.24-.15.42-.34.56-.59.14-.25.2-.53.2-.85,0-.35-.08-.66-.24-.93-.16-.27-.38-.48-.67-.63-.28-.15-.61-.23-.97-.23h-2.36v3.45ZM346.82,322.52l-2.23-3.91.95-.33,2.46,4.24h-1.18Z"/>
    <path class="cls-1" d="M351.33,322.52l3.4-8.89h1.13l3.38,8.89h-1.08l-2.17-5.76c-.06-.16-.13-.35-.2-.56-.07-.22-.15-.44-.23-.67-.08-.23-.16-.46-.23-.68s-.14-.41-.2-.58h.25c-.07.21-.14.43-.21.64-.07.22-.15.43-.22.65-.07.21-.15.43-.23.64-.07.21-.15.42-.23.63l-2.16,5.7h-1.01ZM352.77,320.07l.37-.96h4.2l.41.96h-4.97Z"/>
    <path class="cls-1" d="M363.4,322.52v-8.89h.9l5.81,7.69-.18.23c-.03-.13-.05-.34-.06-.61-.01-.27-.03-.58-.04-.92-.01-.34-.02-.7-.03-1.07,0-.37-.01-.73-.02-1.09,0-.36,0-.68,0-.97v-3.26h.99v8.89h-.93l-5.79-7.59.15-.27c.02.34.05.67.07,1,.02.33.04.65.05.95.01.3.02.58.03.84,0,.25.01.47.02.65,0,.18,0,.31,0,.38v4.04h-.99Z"/>
    <path class="cls-1" d="M375.92,322.52v-8.89h3.35c.61,0,1.17.11,1.67.33.5.21.94.52,1.32.92.37.4.66.87.86,1.41.2.54.31,1.14.31,1.79s-.1,1.25-.31,1.8-.49,1.01-.85,1.41c-.37.39-.81.7-1.32.91-.51.21-1.07.32-1.68.32h-3.35ZM376.91,321.73l-.11-.18h2.41c.47,0,.89-.08,1.29-.25.39-.17.73-.4,1.01-.71s.5-.67.66-1.1c.15-.42.23-.89.23-1.42s-.08-1-.23-1.42c-.16-.42-.38-.79-.67-1.1-.29-.31-.63-.55-1.01-.71-.39-.16-.82-.25-1.28-.25h-2.45l.15-.15v7.28Z"/>
    <path class="cls-1" d="M387.28,322.52v-.94h1.44v-7h-1.44v-.94h3.86v.94h-1.44v7h1.44v.94h-3.86Z"/>
    <path class="cls-1" d="M398.47,322.64c-.45,0-.87-.06-1.27-.19-.4-.13-.76-.32-1.09-.57-.33-.25-.62-.57-.87-.94l.68-.76c.4.57.81.96,1.23,1.19.42.23.89.34,1.42.34.38,0,.73-.06,1.04-.19.31-.13.56-.31.73-.53s.27-.49.27-.79c0-.19-.03-.37-.09-.52s-.16-.29-.29-.41c-.13-.12-.28-.23-.47-.32-.19-.09-.4-.18-.64-.25-.24-.08-.51-.15-.81-.23-.43-.1-.81-.22-1.14-.36-.33-.14-.6-.31-.83-.51s-.39-.44-.51-.71c-.11-.27-.17-.58-.17-.94s.07-.67.22-.97c.15-.29.35-.55.61-.77.26-.22.57-.38.93-.5.35-.12.73-.18,1.14-.18.46,0,.87.06,1.22.19.36.12.68.3.96.54.28.24.52.52.72.85l-.7.69c-.18-.28-.38-.52-.6-.73-.23-.2-.47-.36-.74-.46s-.56-.16-.88-.16c-.37,0-.7.06-.98.19-.29.13-.51.3-.67.53-.16.22-.24.48-.24.77,0,.21.04.4.11.57.08.17.2.31.36.43.16.12.38.23.65.33s.59.19.96.27c.44.1.83.22,1.19.37.35.15.65.32.9.51.25.2.44.43.57.69s.2.56.2.9c0,.53-.13.98-.39,1.38-.26.39-.63.7-1.1.92-.47.22-1.01.33-1.64.33Z"/>
    <path class="cls-1" d="M408.72,322.64c-.45,0-.87-.06-1.27-.19-.4-.13-.76-.32-1.09-.57-.33-.25-.62-.57-.87-.94l.69-.76c.4.57.81.96,1.22,1.19.42.23.89.34,1.42.34.38,0,.73-.06,1.04-.19.31-.13.56-.31.74-.53.18-.23.27-.49.27-.79,0-.19-.03-.37-.1-.52-.06-.15-.16-.29-.28-.41-.13-.12-.29-.23-.47-.32-.19-.09-.4-.18-.64-.25-.24-.08-.51-.15-.81-.23-.43-.1-.81-.22-1.14-.36-.33-.14-.6-.31-.83-.51-.22-.2-.39-.44-.51-.71-.11-.27-.17-.58-.17-.94s.07-.67.22-.97c.15-.29.35-.55.61-.77.26-.22.57-.38.93-.5.35-.12.73-.18,1.14-.18.45,0,.86.06,1.22.19s.68.3.96.54c.28.24.52.52.72.85l-.7.69c-.18-.28-.38-.52-.6-.73-.22-.2-.47-.36-.73-.46-.27-.11-.56-.16-.88-.16-.37,0-.7.06-.98.19-.28.13-.51.3-.67.53-.16.22-.24.48-.24.77,0,.21.04.4.11.57.07.17.19.31.36.43s.38.23.65.33c.27.1.58.19.96.27.44.1.83.22,1.19.37.35.15.65.32.9.51.25.2.44.43.57.69s.19.56.19.9c0,.53-.13.98-.39,1.38s-.63.7-1.1.92-1.02.33-1.64.33Z"/>
    <path class="cls-1" d="M416.38,322.52v-8.89h5.38v.97h-4.39v6.95h4.37v.97h-5.36ZM416.84,318.43v-.96h4.21v.96h-4.21Z"/>
    <path class="cls-1" d="M426.52,322.52v-8.89h.96l3.41,5.55h-.45s3.45-5.55,3.45-5.55h.9v8.89h-.99v-4.06c0-.76.01-1.45.04-2.06s.07-1.21.14-1.82l.18.36-3.19,5h-.69l-3.1-4.94.14-.42c.07.57.11,1.15.14,1.75.03.59.04,1.3.04,2.12v4.06h-.99Z"/>
    <path class="cls-1" d="M439.95,322.52v-8.89h5.38v.97h-4.39v6.95h4.37v.97h-5.36ZM440.41,318.43v-.96h4.21v.96h-4.21Z"/>
    <path class="cls-1" d="M450.09,322.52v-8.89h.9l5.81,7.69-.18.23c-.03-.13-.04-.34-.06-.61-.01-.27-.03-.58-.04-.92-.01-.34-.02-.7-.03-1.07,0-.37-.02-.73-.02-1.09,0-.36,0-.68,0-.97v-3.26h.99v8.89h-.93l-5.79-7.59.15-.27c.03.34.05.67.07,1,.02.33.04.65.05.95.01.3.02.58.03.84,0,.25.01.47.02.65,0,.18,0,.31,0,.38v4.04h-.99Z"/>
    <path class="cls-1" d="M464.23,322.52v-7.92h-2.54v-.97h6.17v.97h-2.64v7.92h-.99Z"/>
    <path class="cls-1" d="M483.66,319.46v-.95h3.58v.95h-3.58Z"/>
    <path class="cls-1" d="M503.98,322.52v-8.89h3.48c.52,0,.98.12,1.4.36.42.24.75.57.99.98s.37.88.37,1.41c0,.49-.12.93-.35,1.33-.24.4-.56.71-.97.95-.41.23-.86.35-1.37.35h-2.56v3.5h-.99ZM504.97,318.05h2.65c.31,0,.59-.07.83-.21.23-.15.42-.34.56-.59.13-.25.2-.53.2-.85,0-.35-.08-.66-.24-.93-.16-.27-.38-.48-.67-.63-.28-.15-.61-.23-.97-.23h-2.36v3.45ZM509.4,322.52l-2.23-3.91.95-.33,2.46,4.24h-1.18Z"/>
    <path class="cls-1" d="M514.89,322.52v-8.89h5.38v.97h-4.39v6.95h4.37v.97h-5.36ZM515.35,318.43v-.96h4.21v.96h-4.21ZM516.93,312.91l-.29-.53,2.12-1.33.52.89-2.35.97Z"/>
    <path class="cls-1" d="M525.03,322.52v-8.89h.9l5.81,7.69-.18.23c-.03-.13-.05-.34-.06-.61-.01-.27-.03-.58-.04-.92-.01-.34-.02-.7-.03-1.07,0-.37-.01-.73-.02-1.09,0-.36,0-.68,0-.97v-3.26h.99v8.89h-.93l-5.79-7.59.15-.27c.02.34.05.67.07,1,.02.33.04.65.05.95.01.3.02.58.03.84,0,.25.01.47.02.65,0,.18,0,.31,0,.38v4.04h-.99Z"/>
    <path class="cls-1" d="M541.23,322.64c-.63,0-1.2-.11-1.73-.33-.53-.23-.99-.54-1.38-.95-.39-.41-.7-.89-.91-1.44-.22-.55-.32-1.16-.32-1.82s.11-1.27.32-1.82c.21-.55.52-1.04.91-1.45.39-.41.85-.73,1.38-.95s1.11-.34,1.73-.34,1.22.11,1.75.34.99.54,1.38.95c.39.41.7.89.91,1.45.22.55.32,1.16.32,1.82s-.11,1.26-.32,1.81c-.21.55-.52,1.03-.91,1.45-.39.41-.85.73-1.38.95-.53.22-1.11.33-1.75.33ZM541.23,321.66c.48,0,.93-.09,1.34-.26.41-.17.76-.42,1.06-.74.3-.32.53-.7.69-1.14.17-.43.25-.91.25-1.43s-.08-1-.25-1.44c-.16-.43-.39-.81-.69-1.14-.29-.32-.65-.57-1.06-.75-.41-.18-.86-.27-1.34-.27s-.93.09-1.34.27-.76.43-1.06.75c-.29.32-.52.7-.68,1.14-.16.44-.24.92-.24,1.44s.08.99.24,1.43c.16.44.39.81.68,1.14.3.32.65.57,1.06.74.41.17.86.26,1.34.26Z"/>
    <path class="cls-1" d="M552.13,322.52l-3.44-8.89h1.12l2.21,5.79c.1.26.19.49.27.7s.15.39.21.58c.06.18.13.36.19.54.06.18.12.37.19.59h-.33c.08-.28.17-.54.25-.79.08-.24.17-.49.25-.75.09-.26.2-.56.34-.91l2.2-5.74h1.12l-3.54,8.89h-1.01Z"/>
    <path class="cls-1" d="M558.91,322.52l3.4-8.89h1.13l3.38,8.89h-1.08l-2.17-5.76c-.06-.16-.13-.35-.2-.56-.07-.22-.15-.44-.23-.67-.08-.23-.16-.46-.23-.68s-.14-.41-.2-.58h.25c-.07.21-.14.43-.21.64-.07.22-.15.43-.22.65-.07.21-.15.43-.23.64-.07.21-.15.42-.23.63l-2.16,5.7h-1.01ZM560.36,320.07l.37-.96h4.2l.41.96h-4.97Z"/>
    <path class="cls-1" d="M571.96,322.52v-7.92h-2.54v-.97h6.17v.97h-2.64v7.92h-.99Z"/>
    <path class="cls-1" d="M579.38,322.52v-.94h1.44v-7h-1.44v-.94h3.86v.94h-1.43v7h1.43v.94h-3.86Z"/>
    <path class="cls-1" d="M591.45,322.64c-.63,0-1.2-.11-1.73-.33-.53-.23-.99-.54-1.38-.95-.39-.41-.7-.89-.91-1.44-.22-.55-.32-1.16-.32-1.82s.11-1.27.32-1.82c.21-.55.52-1.04.91-1.45.39-.41.85-.73,1.38-.95s1.11-.34,1.73-.34,1.22.11,1.75.34.99.54,1.38.95c.39.41.7.89.91,1.45.22.55.32,1.16.32,1.82s-.11,1.26-.32,1.81c-.21.55-.52,1.03-.91,1.45-.39.41-.85.73-1.38.95-.53.22-1.11.33-1.75.33ZM591.45,321.66c.48,0,.93-.09,1.34-.26.41-.17.76-.42,1.06-.74.3-.32.53-.7.69-1.14.17-.43.25-.91.25-1.43s-.08-1-.25-1.44c-.16-.43-.39-.81-.69-1.14-.29-.32-.65-.57-1.06-.75-.41-.18-.86-.27-1.34-.27s-.93.09-1.34.27-.76.43-1.06.75c-.29.32-.52.7-.68,1.14-.16.44-.24.92-.24,1.44s.08.99.24,1.43c.16.44.39.81.68,1.14.3.32.65.57,1.06.74.41.17.86.26,1.34.26Z"/>
    <path class="cls-1" d="M600.28,322.52v-8.89h.9l5.81,7.69-.18.23c-.03-.13-.04-.34-.06-.61-.01-.27-.03-.58-.04-.92-.01-.34-.02-.7-.03-1.07,0-.37-.02-.73-.02-1.09,0-.36,0-.68,0-.97v-3.26h.99v8.89h-.93l-5.79-7.59.15-.27c.03.34.05.67.07,1,.02.33.04.65.05.95.01.3.02.58.03.84,0,.25.01.47.02.65,0,.18,0,.31,0,.38v4.04h-.99Z"/>
  </g>
  <rect class="cls-1" x="337.78" y="166.91" width="8.96" height="23.12"/>
  <path class="cls-2" d="M440.13,202.89v-58.79l-30.07-20.46-39.11-26.64-4.74-3.22-2.37-1.61-2.02-1.38v32.47l-28.05,19.09-13.85,9.43v51.12h-167v4.07h171.04v-53.08l12.09-8.2,25.76-17.54v53.34h0v4.07h0v21.41h4.04v-21.41h37.86v21.41h4.04v-55.19l-13.85-9.43-28.05-19.09v-24.83l41.92,28.55,28.31,19.24v60.75h171.04v-4.07h-167ZM391.62,145.68l12.09,8.23v27.58h-37.86v-53.34l25.76,17.54Z"/>
</svg>